<svg xmlns="http://www.w3.org/2000/svg" width="49.946" height="50.001" viewBox="0 0 49.946 50.001">
  <defs>
    <style>
      .cls-1 {
        fill: #00b592;
      }
    </style>
  </defs>
  <path id="Path_9" data-name="Path 9" class="cls-1" d="M691.027,279.664a11.2,11.2,0,0,0-.021-4.251l3.817-9.21a.062.062,0,0,0,0-.019,15.642,15.642,0,0,1,2.68-4.651,1.247,1.247,0,0,0,.307-1.138l-1.565-6.758a.85.85,0,0,0-.083-.2c-.007-.012-.01-.027-.016-.039s-.036-.04-.053-.062a1.078,1.078,0,0,0-.337-.27.829.829,0,0,0-.2-.048.559.559,0,0,1-.055-.014.839.839,0,0,0-.46.1c-.012.007-.027.009-.039.017H695l-5.884,3.672a1.244,1.244,0,0,0-.588,1.026,15.646,15.646,0,0,1-1.4,5.194v.009l-1.908,4.611a11.188,11.188,0,0,0-2.976-1.076,45.1,45.1,0,0,0,.432-8.194,9.1,9.1,0,0,0,2.068-6.676c-.521-4.857-4.91-8.364-5.1-8.512a.834.834,0,0,0-1.321.869c.43,1.612.058,3.313-3.112,6.81a4.877,4.877,0,0,0-1.142,5.315,6.45,6.45,0,0,0,1.186,1.916c-.2,1.288-.36,2.507-.469,3.694a41.641,41.641,0,0,0-.145,5.91,11.354,11.354,0,0,0-2.075,1.446l-4.042-17.283c0-.018-.016-.03-.021-.046a.759.759,0,0,0-.059-.161l-4.128-7.624a1.924,1.924,0,0,0-3.615.847l-.313,8.662a.827.827,0,0,0,.021.186v.037l4.123,17.6a9.375,9.375,0,0,0-1.927.288l-4.535-10.955a1.684,1.684,0,0,0-2.175-.89l-6.933,2.869a1.672,1.672,0,0,0-.9,2.178l6.151,14.84A6.663,6.663,0,0,0,654.553,293H691.22a6.667,6.667,0,0,0-.193-13.333Zm-.85-21.571,3.494-2.18-1.237,2.987a.833.833,0,1,0,1.54.638l1.237-2.986.925,4.011a16.468,16.468,0,0,0-2.416,3.989,3.429,3.429,0,0,1-4.659-1.927,16.408,16.408,0,0,0,1.116-4.532Zm-1.916,6.543a5.064,5.064,0,0,0,2.077,1.512,5.266,5.266,0,0,0,2.04.43,4.474,4.474,0,0,0,.5-.03l-2.659,6.416a11.316,11.316,0,0,0-3.578-4.424Zm-11.417-5.952,4.187.256c.026.778.017,1.584-.009,2.4a17.53,17.53,0,0,1-4.175-.2c-.1-.016-.208-.027-.312-.042.083-.785.185-1.579.307-2.414Zm-.4-6.71c2.212-2.441,3.359-4.319,3.626-6.083a11.142,11.142,0,0,1,3.007,5.973,7.463,7.463,0,0,1-1.687,5.426q-2.469-.15-4.884-.3a3.475,3.475,0,0,1-.064-5.016Zm-.064,10.785.242.032a23.817,23.817,0,0,0,3.244.276c.345,0,.709-.028,1.073-.056-.076,1.072-.2,2.192-.358,3.35-.206-.011-.407-.031-.614-.031a11.167,11.167,0,0,0-3.693.636,39.9,39.9,0,0,1,.105-4.207Zm-6.445,9.745-2.385-10.156a.833.833,0,0,0-1.622.38l2.143,9.141a9.415,9.415,0,0,0-1.817-.452L662.6,255.809a3.963,3.963,0,0,0,1.632.355c.052,0,.108-.008.162-.011l.589,2.516a.833.833,0,1,0,1.622-.38l-.59-2.517a3.944,3.944,0,0,0,1.456-1.108l3.718,15.9a11.153,11.153,0,0,0-1.25,1.941Zm-5.092-18.083a2.767,2.767,0,0,1-2.783-1.114l.107-2.935a4.881,4.881,0,0,0,.878.083,3.709,3.709,0,0,0,.847-.094,4.255,4.255,0,0,0,1.545-.768l1.4,2.59a2.762,2.762,0,0,1-2,2.24Zm-2.282-9.735a.26.26,0,0,1,.286.128l1.787,3.305a2.355,2.355,0,0,1-2.409.564l.135-3.755a.26.26,0,0,1,.2-.242Zm-6.032,16.644.637,1.538-3.083,1.277a.833.833,0,1,0,.64,1.538l3.083-1.277.638,1.54-1.543.639a.834.834,0,0,0,.32,1.6.849.849,0,0,0,.319-.064l1.542-.639.638,1.54-3.086,1.279a.834.834,0,0,0,.32,1.6.848.848,0,0,0,.318-.064l3.083-1.277.675,1.628a9.672,9.672,0,0,0-5.4,6.567L649.6,264.2Zm34.688,30H654.553a5,5,0,0,1,0-10,4.89,4.89,0,0,1,1.427.207.832.832,0,0,0,1.073-.783,7.917,7.917,0,0,1,12.667-6.174A.834.834,0,0,0,671,274.2a9.585,9.585,0,0,1,18.135,6.187.833.833,0,0,0,.975,1.06,5.135,5.135,0,0,1,1.112-.122,5,5,0,0,1,0,10Zm0,0" transform="translate(-647.897 -242.996)"/>
</svg>
